<?xml version="1.0" encoding="UTF-8"?>
<!DOCTYPE svg PUBLIC "-//W3C//DTD SVG 1.1//EN" "http://www.w3.org/Graphics/SVG/1.1/DTD/svg11.dtd">
<svg xmlns="http://www.w3.org/2000/svg" version="1.1" width="1831px" height="602px" style="shape-rendering:geometricPrecision; text-rendering:geometricPrecision; image-rendering:optimizeQuality; fill-rule:evenodd; clip-rule:evenodd" xmlns:xlink="http://www.w3.org/1999/xlink">
<g><path style="opacity:0.99" fill="#19171a" d="M 1047.5,9.5 C 1097.73,7.50852 1144.73,18.6752 1188.5,43C 1237.93,73.9766 1268.93,118.143 1281.5,175.5C 1243.87,184.325 1206.2,192.992 1168.5,201.5C 1152.69,141.203 1113.52,109.869 1051,107.5C 978.496,111.659 934.496,149.326 919,220.5C 909.765,269.7 909.099,319.033 917,368.5C 921.237,397.566 931.903,423.899 949,447.5C 983.552,486.19 1026.39,500.357 1077.5,490C 1115.51,479.327 1142.34,455.827 1158,419.5C 1164.07,405.634 1168.73,391.301 1172,376.5C 1172.52,375.484 1173.35,374.818 1174.5,374.5C 1210.73,386.244 1247.06,397.577 1283.5,408.5C 1252.49,528.99 1174.66,589.99 1050,591.5C 937.428,589.092 859.095,536.425 815,433.5C 800.324,391.947 793.158,349.113 793.5,305C 792.812,253.621 801.979,204.121 821,156.5C 858.814,75.3722 921.98,27.5388 1010.5,13C 1022.95,11.465 1035.29,10.2983 1047.5,9.5 Z"/></g>
<g><path style="opacity:0.995" fill="#fe002f" d="M -0.5,17.5 C 48.8333,17.5 98.1667,17.5 147.5,17.5C 147.5,63.8333 147.5,110.167 147.5,156.5C 98.1667,156.5 48.8333,156.5 -0.5,156.5C -0.5,110.167 -0.5,63.8333 -0.5,17.5 Z"/></g>
<g><path style="opacity:0.994" fill="#19171a" d="M 256.5,19.5 C 294.5,19.5 332.5,19.5 370.5,19.5C 370.5,93.1667 370.5,166.833 370.5,240.5C 444.167,240.5 517.833,240.5 591.5,240.5C 591.5,166.833 591.5,93.1667 591.5,19.5C 629.5,19.5 667.5,19.5 705.5,19.5C 705.5,206.833 705.5,394.167 705.5,581.5C 667.5,581.5 629.5,581.5 591.5,581.5C 591.5,499.833 591.5,418.167 591.5,336.5C 517.833,336.5 444.167,336.5 370.5,336.5C 370.5,418.167 370.5,499.833 370.5,581.5C 332.5,581.5 294.5,581.5 256.5,581.5C 256.5,394.167 256.5,206.833 256.5,19.5 Z"/></g>
<g><path style="opacity:0.989" fill="#19171a" d="M 1371.5,19.5 C 1510.5,19.5 1649.5,19.5 1788.5,19.5C 1788.5,51.5 1788.5,83.5 1788.5,115.5C 1687.83,115.5 1587.17,115.5 1486.5,115.5C 1486.5,156.5 1486.5,197.5 1486.5,238.5C 1580.17,238.5 1673.83,238.5 1767.5,238.5C 1767.5,270.5 1767.5,302.5 1767.5,334.5C 1673.83,334.5 1580.17,334.5 1486.5,334.5C 1486.5,384.833 1486.5,435.167 1486.5,485.5C 1590.83,485.5 1695.17,485.5 1799.5,485.5C 1799.5,517.5 1799.5,549.5 1799.5,581.5C 1656.83,581.5 1514.17,581.5 1371.5,581.5C 1371.5,394.167 1371.5,206.833 1371.5,19.5 Z"/></g>
<g><path style="opacity:0.994" fill="#fe002f" d="M -0.5,221.5 C 48.8333,221.5 98.1667,221.5 147.5,221.5C 147.5,342.167 147.5,462.833 147.5,583.5C 98.1667,583.5 48.8333,583.5 -0.5,583.5C -0.5,462.833 -0.5,342.167 -0.5,221.5 Z"/></g>
</svg>
